<?xml version="1.0" encoding="UTF-8" standalone="no"?><!DOCTYPE svg PUBLIC "-//W3C//DTD SVG 1.1//EN" "http://www.w3.org/Graphics/SVG/1.1/DTD/svg11.dtd"><svg width="100%" height="100%" viewBox="0 0 50 37" version="1.1" xmlns="http://www.w3.org/2000/svg" xmlns:xlink="http://www.w3.org/1999/xlink" xml:space="preserve" xmlns:serif="http://www.serif.com/" style="fill-rule:evenodd;clip-rule:evenodd;stroke-linejoin:round;stroke-miterlimit:2;"><g><path d="M5.063,36.377c-1.012,0 -1.898,-0.226 -2.66,-0.679c-0.761,-0.453 -1.352,-1.1 -1.773,-1.941c-0.42,-0.84 -0.63,-1.845 -0.63,-3.013c0,-1.196 0.223,-2.217 0.67,-3.064c0.446,-0.847 1.06,-1.5 1.842,-1.96c0.781,-0.459 1.677,-0.689 2.688,-0.689c0.539,-0 1.012,0.046 1.419,0.138c0.407,0.092 0.781,0.21 1.123,0.354c0.38,0.184 0.62,0.388 0.719,0.611c0.098,0.223 0.115,0.506 0.049,0.847l-0.118,0.493c-0.053,0.144 -0.119,0.216 -0.197,0.216c-0.066,0 -0.164,-0.033 -0.296,-0.098c-0.407,-0.224 -0.811,-0.398 -1.211,-0.522c-0.401,-0.125 -0.883,-0.187 -1.448,-0.187c-0.972,-0 -1.76,0.318 -2.364,0.955c-0.604,0.637 -0.906,1.605 -0.906,2.906c-0,1.26 0.308,2.206 0.926,2.836c0.617,0.631 1.418,0.946 2.403,0.946c0.696,-0 1.294,-0.138 1.793,-0.414c0.499,-0.276 0.873,-0.558 1.122,-0.847c0.066,-0.079 0.122,-0.128 0.168,-0.148c0.046,-0.019 0.095,-0.029 0.148,-0.029c0.197,-0 0.295,0.157 0.295,0.472c0,0.224 -0.066,0.493 -0.197,0.808c-0.131,0.315 -0.345,0.627 -0.64,0.936c-0.296,0.308 -0.683,0.564 -1.162,0.768c-0.48,0.204 -1.067,0.305 -1.763,0.305Zm15.213,-6.638c0.249,-0.342 0.568,-0.611 0.955,-0.808c0.388,-0.197 0.811,-0.295 1.271,-0.295c0.932,-0 1.664,0.276 2.196,0.827c0.532,0.552 0.798,1.372 0.798,2.462l0,4.039c0,0.144 -0.072,0.216 -0.217,0.216l-1.457,0c-0.145,0 -0.217,-0.072 -0.217,-0.216l-0,-3.802c-0,-0.644 -0.151,-1.103 -0.453,-1.379c-0.302,-0.276 -0.683,-0.414 -1.143,-0.414c-0.459,0 -0.84,0.141 -1.142,0.424c-0.302,0.282 -0.453,0.752 -0.453,1.408l-0,3.763c-0,0.144 -0.079,0.216 -0.237,0.216l-1.438,0c-0.144,0 -0.216,-0.072 -0.216,-0.216l-0,-6.954c-0,-0.158 0.072,-0.236 0.216,-0.236l0.099,-0c0.381,-0 0.696,0.082 0.945,0.246c0.25,0.164 0.414,0.404 0.493,0.719Zm7.393,0.748l-1.3,0c-0.145,0 -0.217,-0.078 -0.217,-0.236l-0,-1.241c-0,-0.158 0.072,-0.236 0.217,-0.236l1.3,-0l-0,-2.384c-0,-0.144 0.065,-0.217 0.197,-0.217l0.098,0c0.512,0 0.903,0.132 1.172,0.394c0.269,0.263 0.404,0.683 0.404,1.261l0,0.946l1.596,-0c0.118,-0 0.177,0.078 0.177,0.236l-0,1.241c-0,0.158 -0.059,0.236 -0.177,0.236l-1.596,0l0,5.477c0,0.144 -0.066,0.216 -0.197,0.216l-1.477,0c-0.132,0 -0.197,-0.072 -0.197,-0.216l-0,-5.477Zm6.289,-0.63c0.224,-0.42 0.493,-0.706 0.808,-0.857c0.315,-0.151 0.742,-0.226 1.281,-0.226l0.216,-0c0.132,-0 0.197,0.078 0.197,0.236l0,1.34c0,0.157 -0.065,0.236 -0.197,0.236l-0.512,-0c-0.722,-0 -1.192,0.181 -1.408,0.542c-0.217,0.361 -0.325,0.889 -0.325,1.585l-0,3.251c-0,0.144 -0.066,0.216 -0.197,0.216l-1.478,0c-0.118,0 -0.177,-0.072 -0.177,-0.216l-0,-6.954c-0,-0.158 0.059,-0.236 0.177,-0.236l0.099,-0c0.853,-0 1.359,0.361 1.516,1.083Zm15.161,4.432c0.026,-0.013 0.055,-0.033 0.088,-0.059c0.033,-0.026 0.069,-0.039 0.108,-0.039c0.079,-0 0.135,0.029 0.168,0.088c0.033,0.06 0.049,0.122 0.049,0.188c0,0.262 -0.059,0.541 -0.177,0.837c-0.118,0.295 -0.315,0.542 -0.591,0.738c-0.276,0.197 -0.657,0.296 -1.143,0.296c-0.617,-0 -1.106,-0.204 -1.467,-0.611c-0.361,-0.407 -0.542,-1.037 -0.542,-1.891l0,-8.372c0,-0.157 0.066,-0.236 0.197,-0.236l0.099,-0c0.512,-0 0.906,0.128 1.182,0.384c0.275,0.256 0.413,0.68 0.413,1.271l0,6.776c0,0.683 0.243,1.024 0.729,1.024c0.197,0 0.361,-0.033 0.493,-0.098c0.131,-0.066 0.262,-0.164 0.394,-0.296Zm-4.286,-5.476l0,7.332l-7.332,0l0,-7.332l7.332,0Zm-1.659,1.66c-0,-0 -4.013,-0 -4.013,-0c-0,-0 -0,4.013 -0,4.013c-0,-0 4.013,-0 4.013,-0l-0,-4.013Zm-29.611,-2.145c2.221,-0 4.025,1.803 4.025,4.025c-0,2.221 -1.804,4.024 -4.025,4.024c-2.222,0 -4.025,-1.803 -4.025,-4.024c0,-2.222 1.803,-4.025 4.025,-4.025Zm-0,1.659c-1.306,0 -2.365,1.06 -2.365,2.366c-0,1.305 1.059,2.365 2.365,2.365c1.305,-0 2.365,-1.06 2.365,-2.365c0,-1.306 -1.06,-2.366 -2.365,-2.366Z" style="fill:#1477d0;"/><path d="M25.22,10.465c-0,2.058 0.572,4.075 1.652,5.827l4.112,6.668l-19.512,-0l9.191,-14.904c0.359,-0.581 0.549,-1.251 0.549,-1.934l-0,-1.993l-5.991,0c-0.297,0 -0.445,-0.162 -0.445,-0.486l-0,-2.752c-0,-0.324 0.148,-0.486 0.445,-0.486l14.209,-0c1.592,-0 2.388,0.769 2.388,2.307l-0,0.85c-0,0.135 -0.047,0.263 -0.142,0.385c-0.094,0.121 -0.236,0.182 -0.425,0.182l-6.031,0l-0,6.336Zm-3.992,3.172l-3.646,5.912l7.292,0l-3.646,-5.912Zm-17.261,-0.035l0,8.865c0,0.297 -0.148,0.445 -0.445,0.445l-3.077,0c-0.297,0 -0.445,-0.148 -0.445,-0.445l-0,-21.576c-0,-0.324 0.148,-0.486 0.445,-0.486l10.444,-0c1.566,-0 2.348,0.769 2.348,2.307l0,0.85c0,0.135 -0.047,0.263 -0.141,0.385c-0.095,0.121 -0.237,0.182 -0.425,0.182l-8.704,0l0,5.87l5.991,-0c1.593,-0 2.389,0.742 2.389,2.226l-0,0.81c-0,0.378 -0.189,0.567 -0.567,0.567l-7.813,-0Zm37.833,9.715c-2.078,-0 -3.899,-0.466 -5.465,-1.397c-1.565,-0.931 -2.779,-2.26 -3.643,-3.987c-0.863,-1.727 -1.295,-3.792 -1.295,-6.194c-0,-2.455 0.459,-4.554 1.376,-6.294c0.918,-1.741 2.179,-3.084 3.785,-4.028c1.606,-0.945 3.448,-1.417 5.526,-1.417c1.106,-0 2.078,0.094 2.914,0.283c0.837,0.189 1.606,0.432 2.308,0.729c0.782,0.378 1.275,0.796 1.477,1.255c0.203,0.459 0.236,1.039 0.101,1.741l-0.242,1.012c-0.108,0.296 -0.243,0.445 -0.405,0.445c-0.135,-0 -0.338,-0.068 -0.607,-0.202c-0.837,-0.459 -1.667,-0.817 -2.49,-1.073c-0.823,-0.257 -1.815,-0.385 -2.975,-0.385c-1.997,0 -3.617,0.655 -4.858,1.964c-1.241,1.308 -1.862,3.299 -1.862,5.97c-0,2.591 0.634,4.534 1.902,5.83c1.269,1.295 2.915,1.943 4.939,1.943c1.43,-0 2.658,-0.284 3.684,-0.85c1.025,-0.567 1.795,-1.147 2.307,-1.741c0.135,-0.162 0.25,-0.263 0.344,-0.304c0.095,-0.04 0.196,-0.06 0.304,-0.06c0.405,-0 0.607,0.324 0.607,0.971c0,0.459 -0.135,1.012 -0.405,1.66c-0.27,0.648 -0.708,1.289 -1.315,1.923c-0.607,0.634 -1.404,1.16 -2.389,1.579c-0.985,0.418 -2.192,0.627 -3.623,0.627Z" style="fill:#1477d0;"/></g></svg>