<?xml version="1.0" encoding="UTF-8" standalone="no"?><!DOCTYPE svg PUBLIC "-//W3C//DTD SVG 1.1//EN" "http://www.w3.org/Graphics/SVG/1.1/DTD/svg11.dtd"><svg width="100%" height="100%" viewBox="0 0 134 24" version="1.1" xmlns="http://www.w3.org/2000/svg" xmlns:xlink="http://www.w3.org/1999/xlink" xml:space="preserve" xmlns:serif="http://www.serif.com/" style="fill-rule:evenodd;clip-rule:evenodd;stroke-linejoin:round;stroke-miterlimit:2;"><path d="M25.22,10.465c-0,2.058 0.572,4.075 1.652,5.827l4.112,6.668l-19.512,-0l9.191,-14.904c0.359,-0.581 0.549,-1.251 0.549,-1.934l-0,-1.993l-5.991,0c-0.297,0 -0.445,-0.162 -0.445,-0.486l-0,-2.752c-0,-0.324 0.148,-0.486 0.445,-0.486l14.209,-0c1.592,-0 2.388,0.769 2.388,2.307l-0,0.85c-0,0.135 -0.047,0.263 -0.142,0.385c-0.094,0.121 -0.236,0.182 -0.425,0.182l-6.031,0l-0,6.336Zm-3.992,3.172l-3.646,5.912l7.292,0l-3.646,-5.912Zm-17.261,-0.035l0,8.865c0,0.297 -0.148,0.445 -0.445,0.445l-3.077,0c-0.297,0 -0.445,-0.148 -0.445,-0.445l-0,-21.576c-0,-0.324 0.148,-0.486 0.445,-0.486l10.444,-0c1.566,-0 2.348,0.769 2.348,2.307l0,0.85c0,0.135 -0.047,0.263 -0.141,0.385c-0.095,0.121 -0.237,0.182 -0.425,0.182l-8.704,0l0,5.87l5.991,-0c1.593,-0 2.389,0.742 2.389,2.226l-0,0.81c-0,0.378 -0.189,0.567 -0.567,0.567l-7.813,-0Zm37.833,9.715c-2.078,-0 -3.899,-0.466 -5.465,-1.397c-1.565,-0.931 -2.779,-2.26 -3.643,-3.987c-0.863,-1.727 -1.295,-3.792 -1.295,-6.194c-0,-2.455 0.459,-4.554 1.376,-6.294c0.918,-1.741 2.179,-3.084 3.785,-4.028c1.606,-0.945 3.448,-1.417 5.526,-1.417c1.106,-0 2.078,0.094 2.914,0.283c0.837,0.189 1.606,0.432 2.308,0.729c0.782,0.378 1.275,0.796 1.477,1.255c0.203,0.459 0.236,1.039 0.101,1.741l-0.242,1.012c-0.108,0.296 -0.243,0.445 -0.405,0.445c-0.135,-0 -0.338,-0.068 -0.607,-0.202c-0.837,-0.459 -1.667,-0.817 -2.49,-1.073c-0.823,-0.257 -1.815,-0.385 -2.975,-0.385c-1.997,0 -3.617,0.655 -4.858,1.964c-1.241,1.308 -1.862,3.299 -1.862,5.97c-0,2.591 0.634,4.534 1.902,5.83c1.269,1.295 2.915,1.943 4.939,1.943c1.43,-0 2.658,-0.284 3.684,-0.85c1.025,-0.567 1.795,-1.147 2.307,-1.741c0.135,-0.162 0.25,-0.263 0.344,-0.304c0.095,-0.04 0.196,-0.06 0.304,-0.06c0.405,-0 0.607,0.324 0.607,0.971c0,0.459 -0.135,1.012 -0.405,1.66c-0.27,0.648 -0.708,1.289 -1.315,1.923c-0.607,0.634 -1.404,1.16 -2.389,1.579c-0.985,0.418 -2.192,0.627 -3.623,0.627Zm31.264,-13.642c0.512,-0.702 1.167,-1.255 1.963,-1.66c0.796,-0.405 1.666,-0.607 2.611,-0.607c1.916,0 3.421,0.567 4.514,1.7c1.093,1.134 1.639,2.82 1.639,5.06l0,8.299c0,0.297 -0.148,0.445 -0.445,0.445l-2.996,0c-0.297,0 -0.445,-0.148 -0.445,-0.445l-0,-7.813c-0,-1.322 -0.31,-2.267 -0.931,-2.834c-0.621,-0.566 -1.404,-0.85 -2.348,-0.85c-0.945,0 -1.727,0.29 -2.348,0.871c-0.621,0.58 -0.931,1.545 -0.931,2.894l-0,7.732c-0,0.297 -0.162,0.445 -0.486,0.445l-2.955,0c-0.297,0 -0.445,-0.148 -0.445,-0.445l-0,-14.29c-0,-0.324 0.148,-0.486 0.445,-0.486l0.202,0c0.783,0 1.431,0.169 1.944,0.506c0.512,0.338 0.85,0.83 1.012,1.478Zm15.192,1.538l-2.672,0c-0.297,0 -0.445,-0.162 -0.445,-0.486l-0,-2.55c-0,-0.324 0.148,-0.486 0.445,-0.486l2.672,0l-0,-4.898c-0,-0.297 0.135,-0.445 0.405,-0.445l0.202,-0c1.053,-0 1.856,0.27 2.409,0.81c0.553,0.539 0.83,1.403 0.83,2.59l-0,1.943l3.279,0c0.242,0 0.364,0.162 0.364,0.486l-0,2.55c-0,0.324 -0.122,0.486 -0.364,0.486l-3.279,0l-0,11.254c-0,0.297 -0.135,0.445 -0.405,0.445l-3.036,0c-0.27,0 -0.405,-0.148 -0.405,-0.445l-0,-11.254Zm12.925,-1.295c0.459,-0.864 1.012,-1.451 1.66,-1.761c0.648,-0.31 1.525,-0.466 2.631,-0.466l0.446,0c0.27,0 0.404,0.162 0.404,0.486l0,2.753c0,0.324 -0.134,0.486 -0.404,0.486l-1.053,-0c-1.484,-0 -2.449,0.371 -2.894,1.113c-0.446,0.742 -0.668,1.828 -0.668,3.259l-0,6.679c-0,0.297 -0.135,0.445 -0.405,0.445l-3.036,0c-0.243,0 -0.364,-0.148 -0.364,-0.445l-0,-14.29c-0,-0.324 0.121,-0.486 0.364,-0.486l0.202,0c1.755,0 2.794,0.743 3.117,2.227Zm31.154,9.108c0.054,-0.027 0.115,-0.067 0.182,-0.121c0.068,-0.054 0.142,-0.081 0.223,-0.081c0.162,-0 0.277,0.06 0.344,0.182c0.068,0.121 0.101,0.249 0.101,0.384c0,0.54 -0.121,1.114 -0.364,1.721c-0.243,0.607 -0.648,1.113 -1.214,1.518c-0.567,0.405 -1.35,0.607 -2.348,0.607c-1.269,0 -2.274,-0.418 -3.016,-1.255c-0.742,-0.836 -1.113,-2.132 -1.113,-3.886l-0,-17.204c-0,-0.324 0.135,-0.486 0.404,-0.486l0.203,-0c1.052,-0 1.862,0.263 2.429,0.789c0.566,0.526 0.85,1.397 0.85,2.611l-0,13.926c-0,1.403 0.499,2.105 1.498,2.105c0.404,-0 0.742,-0.068 1.012,-0.203c0.269,-0.135 0.539,-0.337 0.809,-0.607Zm-8.806,-11.253l-0,15.067l-15.067,-0l-0,-15.067l15.067,0Zm-3.411,3.41c0,0 -8.246,0 -8.246,0c0,0 0,8.247 0,8.247c0,-0 8.246,-0 8.246,-0l0,-8.247Zm-60.85,-4.408c4.565,0 8.271,3.706 8.271,8.271c0,4.565 -3.706,8.271 -8.271,8.271c-4.565,-0 -8.271,-3.706 -8.271,-8.271c0,-4.565 3.706,-8.271 8.271,-8.271Zm0,3.411c-2.682,-0 -4.86,2.178 -4.86,4.86c-0,2.683 2.178,4.861 4.86,4.861c2.683,-0 4.861,-2.178 4.861,-4.861c-0,-2.682 -2.178,-4.86 -4.861,-4.86Z" style="fill:#1477d0;"/></svg>