<?xml version="1.0" encoding="UTF-8" standalone="no"?><!DOCTYPE svg PUBLIC "-//W3C//DTD SVG 1.1//EN" "http://www.w3.org/Graphics/SVG/1.1/DTD/svg11.dtd"><svg width="100%" height="100%" viewBox="0 0 53 18" version="1.1" xmlns="http://www.w3.org/2000/svg" xmlns:xlink="http://www.w3.org/1999/xlink" xml:space="preserve" xmlns:serif="http://www.serif.com/" style="fill-rule:evenodd;clip-rule:evenodd;stroke-linejoin:round;stroke-miterlimit:2;"><path d="M9.756,0l9.756,15.819l-19.512,-0l9.756,-15.819Z" style="fill:#fff;fill-opacity:0;"/><path d="M9.756,0l9.756,15.819l-19.512,-0l9.756,-15.819Zm-0,6.497l-3.646,5.912l7.292,-0l-3.646,-5.912Z" style="fill:#1477d0;"/><rect x="37.45" y="1.37" width="15.067" height="15.067" style="fill:#fff;fill-opacity:0;"/><path d="M52.517,1.37l0,15.067l-15.067,-0l0,-15.067l15.067,-0Zm-3.41,3.41c-0,0 -8.246,0 -8.246,0c-0,0 -0,8.246 -0,8.246c-0,0 8.246,0 8.246,0l-0,-8.246Z" style="fill:#1477d0;"/><circle cx="27.168" cy="8.903" r="8.271" style="fill:#fff;fill-opacity:0;"/><path d="M27.168,0.632c4.565,0 8.271,3.706 8.271,8.271c-0,4.565 -3.706,8.271 -8.271,8.271c-4.565,0 -8.271,-3.706 -8.271,-8.271c0,-4.565 3.706,-8.271 8.271,-8.271Zm0,3.411c-2.682,-0 -4.86,2.178 -4.86,4.86c-0,2.683 2.178,4.861 4.86,4.861c2.683,-0 4.861,-2.178 4.861,-4.861c-0,-2.682 -2.178,-4.86 -4.861,-4.86Z" style="fill:#1477d0;"/></svg>